<svg xmlns="http://www.w3.org/2000/svg" viewBox="0 0 250 135">
  <title>Varsity Tutors</title>
  <ellipse fill="#ff616e" cx="127.33" cy="30.1" rx="12.36" ry="12.34"/>
  <path fill="#8fcbe0" d="M142.47 48.2a23.65 23.65 0 0 1-35-5.34 29.3 29.3 0 0 1-4.21-12.37 23.33 23.33 0 0 1 1.05-9.49c1-3.27 2.89-5.94 4.63-8.85 1-1.59 1.18-2.75-1.41-1.65-2 .87-6.22 4.56-8.44 8.82a33.82 33.82 0 0 0-3.42 10c-.15 1-2.15 15.66 9.14 25.19a27.51 27.51 0 0 0 6.79 4 31.38 31.38 0 0 0 14 2.08 28.54 28.54 0 0 0 9.4-2.86 21.9 21.9 0 0 0 2-1.22 24.24 24.24 0 0 0 8.82-11.65 24.18 24.18 0 0 1-3.35 3.34z"/>
  <path fill="#3a53a2" d="M166.6 17.24A27.9 27.9 0 0 0 157.65 4C153.37.68 147.58-.91 142.37.54c-2.28.64-4.73 2.44-4.38 4.77a6.42 6.42 0 0 0 2.17 3.26 35.43 35.43 0 0 1 8.17 36.69 26 26 0 0 1-25 18 34.39 34.39 0 0 1-12.68-2.38 30.09 30.09 0 0 1-7-4.06 35.42 35.42 0 0 0 14.84 9.95 38.6 38.6 0 0 0 27.15-1c7.43-3.08 13.82-9.26 17.83-16.14a38.05 38.05 0 0 0 2-4 39.64 39.64 0 0 0 1.13-28.39zM159.13 90l-25.53.21v3.37l10.76-.09.24 28.85h4l-.24-28.85 10.76-.09zm11.79 23.53c-2.52 3.53-6 6-8.36 6.07-1.86 0-2.65-1.1-2.68-3.83l-.13-15.67h-3.67l.14 16.6c0 4 2.11 6.18 6 6.15 3.33 0 6.2-1.77 8.76-5.35v4.59h3.72l-.18-22.09h-3.72zm16.39 5.47c-.78 0-1.18-.33-1.28-1-.05-.39-.16-2.25-.17-2.44l-.1-12.6h5.87v-3.07h-5.87v-6.44h-3.67l.05 6.44-3.7 1v2.15h3.72l.12 14.74c0 2.93 1.76 4.91 4.3 4.89 1.76 0 3-.66 5.55-2.83l-1.53-2.43c-1.6 1.17-2.36 1.59-3.29 1.59zm17-19.81c-6 0-10.91 5.36-10.86 11.76s5 11.62 11.06 11.57 10.86-5.41 10.8-11.76-5.03-11.64-10.99-11.59zm.17 20.06c-3.91 0-7-3.65-7-8.34s3-8.42 6.88-8.45 6.92 3.65 7 8.33-3.01 8.41-6.87 8.44zM223 103.6v-4h-3.66l.18 22.11h3.67l-.11-13.18c2.07-3.83 3.81-5.84 5.18-5.86.44 0 .84.24 1.58.87l1.78-3.09a4.41 4.41 0 0 0-2.85-1.45c-1.66 0-3.02 1.06-5.77 4.6zm20.89 5.29c-4-1.63-4.62-2-5.5-2.84a1.85 1.85 0 0 1-.55-1.36c0-1.66 1.59-2.79 4.08-2.81a9.68 9.68 0 0 1 2.55.36 10.36 10.36 0 0 1 3.19 1.44l1.78-3a11.45 11.45 0 0 0-4.32-1.62 13.56 13.56 0 0 0-2.83-.22c-5.19 0-8.4 2.46-8.36 6.31 0 2.69 1.5 4.19 5.82 6 4 1.58 5 2.2 5.9 3.47a3 3 0 0 1 .45 1.5c0 1.71-1.64 3-3.89 3a12.33 12.33 0 0 1-5.63-1.47l-1.13-.58-1.45 3.03a15.53 15.53 0 0 0 5.24 1.81 17.62 17.62 0 0 0 3.09.27c4.84 0 7.7-2.46 7.67-6.41 0-3.47-1.36-4.97-6.07-6.88zM23.67 91.17l-9 25.22a4.14 4.14 0 0 0-.28 1.56 6.54 6.54 0 0 0-.36-1.56l-9.75-25h-4.3l13 32.94h2.45l12.25-33.19zm19.75 28.44L43.31 106c0-3.41-2.84-5.49-7.29-5.45-4.74 0-8 2.07-7.93 5a2.22 2.22 0 0 0 .41 1.45l3.71-.81a2.43 2.43 0 0 1-.21-.83c0-1.27 1.06-1.92 3.36-1.93 2.84 0 4.22.89 4.23 2.69v4L32 112a5.88 5.88 0 0 0-4.88 6.19 5.51 5.51 0 0 0 6 5.76 10 10 0 0 0 4.69-1.31 12 12 0 0 0 2.33-1.78c.21 2.1 1.29 2.87 4.33 3l.85-3.08c-1.2-.2-1.79-.58-1.9-1.17zm-3.73-1.87c-3.16 2.32-4.28 2.87-5.94 2.88a2.75 2.75 0 0 1-3-2.85 4.28 4.28 0 0 1 .62-2.4l8.29-2.22zM53 105v-4h-3.67l.19 22.11h3.67L53.07 110c2.07-3.82 3.82-5.84 5.19-5.85.44 0 .83.24 1.57.87l1.78-3.1a4.42 4.42 0 0 0-2.85-1.48c-1.66-.03-3.02 1.05-5.76 4.56zm20.49 5.3c-4-1.63-4.61-2-5.5-2.84a1.87 1.87 0 0 1-.55-1.36c0-1.66 1.59-2.79 4.08-2.82a10.89 10.89 0 0 1 5.74 1.81l1.78-3a11.62 11.62 0 0 0-4.31-1.63 15.1 15.1 0 0 0-2.84-.22c-5.19 0-8.39 2.47-8.36 6.32 0 2.69 1.5 4.19 5.82 6 4 1.58 5 2.2 5.9 3.46a2.86 2.86 0 0 1 .45 1.51c0 1.71-1.64 3-3.89 3a12.35 12.35 0 0 1-5.6-1.53l-1.13-.58-1.49 3.09a15.51 15.51 0 0 0 5.25 1.81 17.44 17.44 0 0 0 3.08.27c4.84 0 7.71-2.46 7.67-6.41-.03-3.44-1.36-4.94-6.07-6.85zm11.7-19.65A2.4 2.4 0 1 0 87.6 93a2.41 2.41 0 0 0-2.41-2.35zm-1.59 32.24h3.67l-.19-22.12h-3.67zm17.4-3.18c-.79 0-1.18-.33-1.28-1-.06-.39-.17-2.25-.17-2.44l-.11-12.6h5.87v-3.07h-5.86l-.06-6.45h-3.67l.06 6.44h-3.72v3.08h3.71l.13 14.75c0 2.93 1.75 4.91 4.3 4.89 1.76 0 3-.66 5.55-2.83l-1.54-2.43c-1.57 1.26-2.3 1.65-3.21 1.66zm21.74-19.27L118.3 114l-.47 2.15-.75-2.14-5.45-13.48h-4.11l8.39 19.6a40.64 40.64 0 0 1-3 6.86 25.16 25.16 0 0 1-4.15 5.75l3 2.22a41.42 41.42 0 0 0 3.28-4.67 33 33 0 0 0 3-6.51l8.51-23.41z"/>
</svg>
