<svg xmlns="http://www.w3.org/2000/svg" viewBox="0 0 250 135">
  <title>Varsity Tutors</title>
  <ellipse fill="#fff" cx="124.27" cy="30.1" rx="12.36" ry="12.34"/>
  <path fill="#fff" d="M139.4,48.2a23.64,23.64,0,0,1-35-5.34,29.46,29.46,0,0,1-4.22-12.37A23.33,23.33,0,0,1,101.25,21c1-3.27,2.89-5.94,4.63-8.85,1-1.59,1.18-2.75-1.41-1.65-2.06.87-6.22,4.56-8.44,8.82a34.15,34.15,0,0,0-3.43,10c-.14,1-2.14,15.66,9.15,25.19h0a27.51,27.51,0,0,0,6.79,4,31.38,31.38,0,0,0,14,2.08,28.62,28.62,0,0,0,9.38-2.84,21.9,21.9,0,0,0,2-1.22,24.24,24.24,0,0,0,8.82-11.65A23.7,23.7,0,0,1,139.4,48.2Z"/>
  <path fill="#fff" d="M163.54,17.24A27.9,27.9,0,0,0,154.59,4C150.3.68,144.52-.91,139.3.54c-2.27.64-4.72,2.44-4.37,4.77a6.46,6.46,0,0,0,2.16,3.26,35.44,35.44,0,0,1,8.18,36.69,26,26,0,0,1-25,18,34.39,34.39,0,0,1-12.68-2.38,30.09,30.09,0,0,1-7-4.06,35.45,35.45,0,0,0,14.83,9.95,38.63,38.63,0,0,0,27.16-1c7.43-3.08,13.82-9.26,17.82-16.14a36.32,36.32,0,0,0,2-4A39.64,39.64,0,0,0,163.54,17.24Z"/>
  <path fill="#fff" d="M159.13,90l-25.53.21,0,3.37,10.76-.09.24,28.85,4,0-.24-28.85,10.76-.09Zm11.79,23.53c-2.52,3.53-6,6-8.36,6.07-1.86,0-2.65-1.1-2.68-3.83l-.13-15.67-3.67,0,.14,16.6c0,4,2.11,6.18,6,6.15,3.33,0,6.2-1.77,8.76-5.35l0,4.59,3.72,0L174.52,100l-3.72,0ZM187.31,119c-.78,0-1.18-.33-1.28-1-.05-.39-.16-2.25-.17-2.44l-.1-12.6,5.87,0,0-3.07-5.87,0,0-6.44-3.67,0,.05,6.44-3.7,1v2.15l3.72,0,.12,14.74c0,2.93,1.76,4.91,4.3,4.89,1.76,0,3-.66,5.55-2.83l-1.53-2.43C189,118.58,188.24,119,187.31,119Zm17-19.81c-6,0-10.91,5.36-10.86,11.76s5,11.62,11.06,11.57,10.86-5.41,10.8-11.76S210.28,99.12,204.32,99.17Zm.17,20.06c-3.91,0-7-3.65-7-8.34s3-8.42,6.88-8.45,6.92,3.65,7,8.33S208.35,119.2,204.49,119.23ZM223,103.6l0-4-3.66,0,.18,22.11,3.67,0-.11-13.18c2.07-3.83,3.81-5.84,5.18-5.86.44,0,.84.24,1.58.87l1.78-3.09A4.41,4.41,0,0,0,228.77,99C227.11,99,225.75,100.06,223,103.6Zm20.89,5.29c-4-1.63-4.62-2-5.5-2.84a1.85,1.85,0,0,1-.55-1.36c0-1.66,1.59-2.79,4.08-2.81a9.68,9.68,0,0,1,2.55.36,10.36,10.36,0,0,1,3.19,1.44l1.78-3a11.45,11.45,0,0,0-4.32-1.62,13.56,13.56,0,0,0-2.83-.22c-5.19,0-8.4,2.46-8.36,6.31,0,2.69,1.5,4.19,5.82,6,4,1.58,5,2.2,5.9,3.47a3,3,0,0,1,.45,1.5c0,1.71-1.64,3-3.89,3a12.33,12.33,0,0,1-5.63-1.47l-1.13-.58L234,120.1a15.53,15.53,0,0,0,5.24,1.81,17.62,17.62,0,0,0,3.09.27c4.84,0,7.7-2.46,7.67-6.41C250,112.3,248.64,110.8,243.93,108.89ZM23.67,91.17l-9,25.22a4.14,4.14,0,0,0-.28,1.56,6.54,6.54,0,0,0-.36-1.56l-9.75-25-4.3,0,13,32.94,2.45,0L27.68,91.14Zm19.75,28.44L43.31,106c0-3.41-2.84-5.49-7.29-5.45-4.74,0-8,2.07-7.93,5A2.22,2.22,0,0,0,28.5,107l3.71-.81a2.43,2.43,0,0,1-.21-.83c0-1.27,1.06-1.92,3.36-1.93,2.84,0,4.22.89,4.23,2.69l0,4L32,112a5.88,5.88,0,0,0-4.88,6.19,5.51,5.51,0,0,0,6,5.76,10,10,0,0,0,4.69-1.31,12,12,0,0,0,2.33-1.78c.21,2.1,1.29,2.87,4.33,3l.85-3.08C44.12,120.58,43.53,120.2,43.42,119.61Zm-3.73-1.87c-3.16,2.32-4.28,2.87-5.94,2.88a2.75,2.75,0,0,1-3-2.85,4.28,4.28,0,0,1,.62-2.4l8.29-2.22ZM53,105l0-4-3.67,0,.19,22.11,3.67,0L53.07,110c2.07-3.82,3.82-5.84,5.19-5.85.44,0,.83.24,1.57.87l1.78-3.1a4.42,4.42,0,0,0-2.85-1.48C57.1,100.41,55.74,101.49,53,105Zm20.49,5.3c-4-1.63-4.61-2-5.5-2.84a1.87,1.87,0,0,1-.55-1.36c0-1.66,1.59-2.79,4.08-2.82a10.89,10.89,0,0,1,5.74,1.81l1.78-3a11.62,11.62,0,0,0-4.31-1.63,15.1,15.1,0,0,0-2.84-.22c-5.19,0-8.39,2.47-8.36,6.32,0,2.69,1.5,4.19,5.82,6,4,1.58,5,2.2,5.9,3.46a2.86,2.86,0,0,1,.45,1.51c0,1.71-1.64,3-3.89,3A12.35,12.35,0,0,1,66.21,119l-1.13-.58-1.49,3.09a15.51,15.51,0,0,0,5.25,1.81,17.44,17.44,0,0,0,3.08.27c4.84,0,7.71-2.46,7.67-6.41C79.56,113.74,78.23,112.24,73.52,110.33ZM85.19,90.65A2.4,2.4,0,1,0,87.6,93,2.41,2.41,0,0,0,85.19,90.65ZM83.6,122.89l3.67,0-.19-22.12-3.67,0ZM101,119.71c-.79,0-1.18-.33-1.28-1-.06-.39-.17-2.25-.17-2.44l-.11-12.6,5.87,0,0-3.07-5.86,0-.06-6.45-3.67,0,.06,6.44-3.72,0,0,3.08,3.71,0,.13,14.75c0,2.93,1.75,4.91,4.3,4.89,1.76,0,3-.66,5.55-2.83l-1.54-2.43C102.64,119.31,101.91,119.7,101,119.71Zm21.74-19.27L118.3,114l-.47,2.15-.75-2.14-5.45-13.48-4.11,0,8.39,19.6a40.64,40.64,0,0,1-3,6.86,25.16,25.16,0,0,1-4.15,5.75l3,2.22a41.42,41.42,0,0,0,3.28-4.67,33,33,0,0,0,3-6.51l8.51-23.41Z"/>
</svg>
