<svg xmlns="http://www.w3.org/2000/svg" viewBox="0 0 98 92">
  <title>Varsity Tutors</title>
  <ellipse fill="#ff616e" cx="42.69" cy="40.16" rx="16.53" ry="16.55"/>
  <path fill="#8fcbe0" d="M62.73 64.61A31.6 31.6 0 0 1 16 57a39.58 39.58 0 0 1-5.49-16.63A31.26 31.26 0 0 1 12 27.7c1.41-4.37 3.93-7.94 6.28-11.82 1.29-2.12 1.62-3.67-1.86-2.22-2.76 1.15-8.37 6-11.4 11.73A45.78 45.78 0 0 0 .35 38.74C.14 40-2.7 59.72 12.29 72.62a37 37 0 0 0 9 5.43A41.66 41.66 0 0 0 40 81a37.71 37.71 0 0 0 12.58-3.7c.89-.48 1.77-1 2.65-1.61a32.47 32.47 0 0 0 11.94-15.53 32.76 32.76 0 0 1-4.44 4.45z"/>
  <path fill="#3a53a2" d="M95.35 23.35c-2.28-6.89-6.11-13.42-11.81-17.89S70.12-1.21 63.13.68c-3.05.83-6.35 3.21-5.9 6.35.24 1.76 1.61 3.11 2.85 4.39a47.65 47.65 0 0 1 10.53 49.31 34.84 34.84 0 0 1-33.67 23.78A45.58 45.58 0 0 1 20 81.18a40 40 0 0 1-9.36-5.52 47.48 47.48 0 0 0 19.75 13.51 51.51 51.51 0 0 0 36.33-1c10-4.05 18.59-12.27 24-21.44a51.84 51.84 0 0 0 2.79-5.39 53.32 53.32 0 0 0 1.84-37.99z"/>
</svg>
