<svg xmlns="http://www.w3.org/2000/svg" viewBox="0 0 301 50">
  <title>Varsity Tutors</title>
  <ellipse cx="20.37" cy="19.22" fill="#ff616e" rx="7.89" ry="7.92"/>
  <path fill="#8fcbe0" d="M29.94 30.92A15.06 15.06 0 0 1 7.62 27.3a18.93 18.93 0 0 1-2.62-8 14.81 14.81 0 0 1 .73-6.08 27.39 27.39 0 0 1 3-5.66c.62-1 .77-1.76-.89-1.06a14.28 14.28 0 0 0-5.44 5.65 21.92 21.92 0 0 0-2.23 6.39c-.11.62-1.46 10 5.7 16.22a17.36 17.36 0 0 0 4.31 2.59 19.86 19.86 0 0 0 8.92 1.41 17.9 17.9 0 0 0 6-1.77 13 13 0 0 0 1.27-.77 15.56 15.56 0 0 0 5.69-7.43 15.25 15.25 0 0 1-2.12 2.13z"/>
  <path fill="#3a53a2" d="M45.51 11.17a17.94 17.94 0 0 0-5.64-8.56A11.3 11.3 0 0 0 30.13.33c-1.45.39-3 1.53-2.81 3a4.12 4.12 0 0 0 1.36 2.11 22.83 22.83 0 0 1 5 23.59 17 17 0 0 1-6.43 8.51 16.91 16.91 0 0 1-9.64 2.88 21.59 21.59 0 0 1-8.07-1.6 18.78 18.78 0 0 1-4.47-2.64 22.69 22.69 0 0 0 9.42 6.47 24.47 24.47 0 0 0 17.33-.5 24.61 24.61 0 0 0 11.49-10.22 24.21 24.21 0 0 0 1.33-2.58 25.62 25.62 0 0 0 .87-18.18zM212.05 6H187v3.35h10.56v28.46h3.93V9.35h10.56zm11.37 23.31c-2.49 3.47-5.95 5.92-8.25 5.92-1.83 0-2.59-1.11-2.59-3.8V16H209v16.37c0 4 2 6.12 5.8 6.12 3.27 0 6.1-1.69 8.64-5.2v4.52h3.65V16h-3.65zm16 5.49c-.76 0-1.15-.34-1.24-1-.05-.39-.15-2.22-.15-2.41V19h5.76v-3h-5.76V9.64h-3.6V16l-3.64.91V19h3.64v14.58c0 2.89 1.68 4.86 4.18 4.86 1.72 0 2.92-.63 5.47-2.74l-1.49-2.41c-1.5 1.15-2.22 1.54-3.13 1.54zm16.86-19.41c-5.91 0-10.75 5.2-10.75 11.51s4.84 11.51 10.75 11.51S267 33.19 267 26.93s-4.83-11.51-10.68-11.51zm0 19.79c-3.84 0-6.82-3.66-6.82-8.28s3-8.28 6.82-8.28 6.76 3.66 6.76 8.28-2.93 8.31-6.72 8.31zM274.65 20v-4h-3.6v21.81h3.6v-13c2.06-3.76 3.79-5.73 5.13-5.73.43 0 .82.24 1.54.87l1.77-3a4.35 4.35 0 0 0-2.78-1.49c-1.63-.04-2.98 1.02-5.66 4.54zm20.45 5.39c-3.94-1.64-4.51-2-5.38-2.84a1.92 1.92 0 0 1-.52-1.35c0-1.64 1.58-2.74 4-2.74a9.24 9.24 0 0 1 2.49.38 9.64 9.64 0 0 1 3.12 1.45l1.78-2.94a11.5 11.5 0 0 0-4.23-1.64 13.75 13.75 0 0 0-2.78-.24c-5.09 0-8.25 2.36-8.25 6.16 0 2.65 1.44 4.15 5.66 5.93 3.89 1.59 4.89 2.21 5.76 3.47a2.85 2.85 0 0 1 .43 1.49c0 1.68-1.63 2.89-3.84 2.89a12.08 12.08 0 0 1-5.52-1.49l-1.1-.58-1.49 3a15.18 15.18 0 0 0 5.14 1.83 17.93 17.93 0 0 0 3 .29c4.75 0 7.58-2.36 7.58-6.26.05-3.44-1.25-4.93-5.85-6.86zM79.13 6l-9 24.8a4.21 4.21 0 0 0-.28 1.54 6.42 6.42 0 0 0-.34-1.54L60.12 6H55.9l12.48 32.6h2.4L83.06 6zm19.14 28.25V20.86c0-3.37-2.73-5.44-7.1-5.44-4.65 0-7.82 2-7.82 4.86a2.2 2.2 0 0 0 .38 1.35l3.65-.77a2.22 2.22 0 0 1-.19-.82c0-1.25 1-1.88 3.31-1.88 2.78 0 4.13.92 4.13 2.7v3.95l-7.54 1.78a5.8 5.8 0 0 0-4.84 6.07 5.42 5.42 0 0 0 5.8 5.73 9.74 9.74 0 0 0 4.61-1.25A11.45 11.45 0 0 0 95 35.41c.19 2.07 1.25 2.84 4.22 3l.87-3c-1.15-.2-1.72-.58-1.82-1.16zm-3.64-1.88c-3.12 2.27-4.23 2.8-5.86 2.8a2.71 2.71 0 0 1-2.93-2.85 4.28 4.28 0 0 1 .63-2.32l8.16-2.11zM107.82 20v-4h-3.6v21.81h3.6v-13c2.07-3.76 3.79-5.73 5.14-5.73.43 0 .81.24 1.53.87l1.78-3a4.34 4.34 0 0 0-2.79-1.49c-1.63-.04-2.97 1.02-5.66 4.54zm20.06 5.39c-3.93-1.64-4.51-2-5.37-2.84a1.89 1.89 0 0 1-.53-1.35c0-1.64 1.58-2.74 4-2.74a9.19 9.19 0 0 1 2.49.38 9.64 9.64 0 0 1 3.12 1.45l1.78-2.94a11.4 11.4 0 0 0-4.22-1.64 13.91 13.91 0 0 0-2.79-.24c-5.08 0-8.25 2.36-8.25 6.16 0 2.65 1.44 4.15 5.66 5.93 3.89 1.59 4.9 2.21 5.76 3.47a2.85 2.85 0 0 1 .43 1.49c0 1.68-1.63 2.89-3.84 2.89a12 12 0 0 1-5.51-1.49l-1.11-.58-1.49 3a15.18 15.18 0 0 0 5.14 1.83 17.93 17.93 0 0 0 3 .29c4.75 0 7.58-2.36 7.58-6.26.05-3.44-1.24-4.93-5.85-6.86zM139.49 6a2.36 2.36 0 1 0 2.35 2.36A2.36 2.36 0 0 0 139.49 6zm-1.82 31.78h3.6V16h-3.6zm17.08-3c-.76 0-1.15-.34-1.24-1 0-.39-.15-2.22-.15-2.41V19h5.76v-3h-5.76V9.64h-3.6V16h-3.64v3h3.64v14.58c0 2.89 1.68 4.86 4.18 4.86 1.72 0 2.92-.63 5.47-2.74l-1.49-2.41c-1.54 1.15-2.26 1.54-3.17 1.54zM176.25 16l-4.46 13.34-.48 2.12-.72-2.12L165.36 16h-4l8.06 19.41a40.42 40.42 0 0 1-3 6.74 25 25 0 0 1-4.13 5.63l2.83 2.22a42.29 42.29 0 0 0 3.26-4.58 32.45 32.45 0 0 0 3-6.4L180 16z"/>
</svg>
